<?xml version="1.0" encoding="UTF-8"?>
<svg width="140px" height="40px" viewBox="0 0 140 40" version="1.1" xmlns="http://www.w3.org/2000/svg" xmlns:xlink="http://www.w3.org/1999/xlink">
    <!-- Generator: Sketch 41.2 (35397) - http://www.bohemiancoding.com/sketch -->
    <title>Accenture</title>
    <desc>Created with Sketch.</desc>
    <defs>
        <polygon id="path-1" points="0.546556439 0.339199582 139.764586 0.339199582 139.764586 72.3711968 0.546556439 72.3711968"></polygon>
    </defs>
    <g id="Page-1" stroke="none" stroke-width="1" fill="none" fill-rule="evenodd">
        <g id="Desktop-HD" transform="translate(-529.000000, -2722.000000)">
            <g id="Accenture" transform="translate(529.000000, 2721.000000)">
                <g id="svg2">
                    <g id="layer1" transform="translate(-0.000001, 0.092303)">
                        <g id="g3437" transform="translate(70.149533, 37.083603) scale(1, -1) translate(-70.149533, -37.083603) translate(0.149533, 0.583603)">
                            <g id="g3439-Clipped">
                                <mask id="mask-2" fill="white">
                                    <use xlink:href="#path-1"></use>
                                </mask>
                                <g id="path3443"></g>
                                <g id="g3439" mask="url(#mask-2)">
                                    <g transform="translate(0.000000, 31.942561)">
                                        <g id="g3445" transform="translate(0.170167, 0.536179)"></g>
                                        <g id="g3449" transform="translate(16.528586, 0.198272)"></g>
                                        <g id="g3453" transform="translate(32.761619, 0.198272)"></g>
                                        <g id="g3457" transform="translate(48.732855, 0.737417)"></g>
                                        <g id="g3461" transform="translate(65.851631, 1.296716)"></g>
                                        <g id="g3465" transform="translate(81.171669, 0.415862)"></g>
                                        <g id="g3469" transform="translate(96.479076, 0.536179)"></g>
                                        <g id="g3473" transform="translate(113.720023, 0.823586)"></g>
                                        <g id="g3477" transform="translate(124.454499, 0.737417)"></g>
                                        <g id="g3481" transform="translate(81.819958, 26.739803)"></g>
                                        <g id="Group-2" transform="translate(0.000000, 0.770833)">
                                            <path d="M14.7143863,0.525882556 L14.7143863,13.3462578 C14.7143863,17.5048751 11.9678254,18.9407693 8.12355867,18.9407693 C4.35890242,18.9407693 1.22500598,17.3535282 1.22500598,13.2329377 L5.34867479,13.2329377 C5.34867479,15.0125947 6.29864194,15.9944482 8.12355867,15.9944482 C10.2171607,15.9944482 10.6749209,14.4809792 10.6749209,12.7036039 L10.6749209,10.9216652 C6.56196885,10.8075847 0.546020599,10.2387029 0.546020599,4.82900191 C0.546020599,1.76707923 2.98638744,0.103023885 5.87456313,0.103023885 C7.85870079,0.103023885 9.68285204,0.747959412 10.6029653,2.60138852 L10.6749209,2.60138852 L10.6749209,0.525882556 L14.7143863,0.525882556 M10.6749209,8.46284855 C10.6749209,6.15081553 9.72189179,3.05618975 6.90567171,3.05618975 C5.49258601,3.05618975 4.65744165,3.77641846 4.65744165,5.21307319 C4.65744165,7.91982501 8.65786735,8.46284855 10.6749209,8.46284855" id="path3447" fill="#FFFFFF"></path>
                                            <path d="M27.2453792,12.3565707 C27.2453792,14.2115209 26.7126015,15.9942201 24.5049421,15.9942201 C21.8364607,15.9942201 21.0388251,13.2327096 21.0388251,11.0689813 C21.0388251,6.52933488 23.6973552,3.05596159 28.5076643,3.05596159 C29.5288215,3.05596159 30.5538062,3.16928163 31.5481715,3.52293142 L31.5481715,0.937865546 C29.8304227,0.401686835 28.0460767,0.103556261 26.2533103,0.103556261 C19.7826639,0.103556261 16.5454269,4.04389938 16.5454269,10.31681 C16.5454269,15.5455031 19.4083416,18.9405411 24.8494105,18.9405411 C29.2670256,18.9405411 31.7372464,16.791263 31.7372464,12.3565707 L27.2453792,12.3565707" id="path3451" fill="#FFFFFF"></path>
                                            <path d="M43.4784116,12.3565707 C43.4784116,14.2115209 42.9441029,15.9942201 40.740271,15.9942201 C38.077148,15.9942201 37.2695611,13.2327096 37.2695611,11.0689813 C37.2695611,6.52933488 39.9456974,3.05596159 44.7384002,3.05596159 C45.7633849,3.05596159 46.7921971,3.16928163 47.779673,3.52293142 L47.779673,0.937865546 C46.072641,0.401686835 44.2798746,0.103556261 42.4894047,0.103556261 C36.0156963,0.103556261 32.7838178,4.04389938 32.7838178,10.31681 C32.7838178,15.5455031 35.642905,18.9405411 41.0801464,18.9405411 C45.501589,18.9405411 47.9756372,16.791263 47.9756372,12.3565707 L43.4784116,12.3565707" id="path3455" fill="#FFFFFF"></path>
                                            <path d="M64.0425593,10.614104 L64.0425593,11.6453924 C64.0425593,16.0359736 61.7621789,18.940465 57.150896,18.940465 C51.7458049,18.940465 49.3812211,15.5766091 49.3812211,10.4680809 C49.3812211,4.53056712 52.0833839,0.103480207 58.5165216,0.103480207 C60.231974,0.103480207 61.9474263,0.295896113 63.5794408,0.825990527 L63.5794408,3.72439771 C62.5192438,3.35857933 61.2577241,3.05588553 60.1225096,3.05588553 C56.0064956,3.05588553 53.3035673,6.78860201 53.3035673,10.614104 L64.0425593,10.614104 M60.0444301,13.1565798 L53.4206866,13.1565798 C53.6082305,14.9750242 55.0236126,16.2679374 56.84164,16.2679374 C58.7890343,16.2679374 60.0444301,15.0860626 60.0444301,13.1565798" id="path3459" fill="#FFFFFF"></path>
                                            <path d="M76.5684234,0.525882556 L76.5684234,10.8075847 C76.5684234,11.6768787 76.643441,13.9889117 75.9231194,14.670353 C75.6130979,14.9753284 75.1254838,15.0125947 74.7021705,15.0125947 C71.6563048,15.0125947 70.4361214,10.7360942 70.4361214,8.30617789 L70.4361214,0.525882556 L66.2106431,0.525882556 L66.2106431,18.5293186 L70.4361214,18.5293186 L70.4361214,15.1631811 L70.5134354,15.1631811 C71.4679955,17.4683693 73.2883193,18.9407693 75.8833142,18.9407693 C79.3494312,18.9407693 80.7977292,16.1039656 80.7977292,13.0032555 L80.7977292,0.525882556 L76.5684234,0.525882556" id="path3463" fill="#FFFFFF"></path>
                                            <path d="M89.592006,15.6163091 L89.592006,7.10209543 C89.592006,4.97715455 89.8139967,3.05603764 92.4526242,3.05603764 C93.0933354,3.05603764 93.7470597,3.19901863 94.3938947,3.35873144 L94.3938947,0.401762888 C93.2449014,0.216952354 92.0721781,0.103632315 90.9254813,0.103632315 C87.2212983,0.103632315 85.374948,1.31821019 85.374948,5.05701096 L85.374948,15.6163091 L81.8292205,15.6163091 L81.8292205,18.5291665 L85.374948,18.5291665 L85.374948,22.7957801 L89.592006,24.5039466 L89.592006,18.5291665 L94.9626502,18.5291665 L94.9626502,15.6163091 L89.592006,15.6163091" id="path3467" fill="#FFFFFF"></path>
                                            <path d="M107.195869,0.525882556 L107.195869,3.88441474 L107.123148,3.88441474 C106.159402,1.62029556 104.303866,0.103023885 101.750973,0.103023885 C98.286387,0.103023885 96.8350271,2.93754595 96.8350271,6.03673495 L96.8350271,18.5293186 L101.064333,18.5293186 L101.064333,8.23088471 C101.064333,7.3593091 100.990846,5.05716307 101.70734,4.37724283 C102.018893,4.07226742 102.508038,4.04412754 102.932882,4.04412754 C105.972624,4.04412754 107.195869,8.30617789 107.195869,10.7360942 L107.195869,18.5293186 L111.429768,18.5293186 L111.429768,0.525882556 L107.195869,0.525882556" id="path3471" fill="#FFFFFF"></path>
                                            <path d="M118.312934,8.41866134 L118.312934,0.525806502 L114.089753,0.525806502 L114.089753,18.5292426 L118.312934,18.5292426 L118.312934,15.204174 L118.387187,15.204174 C119.802569,17.688849 121.208765,18.9406932 124.256162,18.9406932 L124.256162,14.5561964 C119.917391,14.5561964 118.312934,12.6655009 118.312934,8.41866134" id="path3475" fill="#FFFFFF"></path>
                                            <path d="M139.764203,10.614104 L139.764203,11.6453924 C139.764203,16.0359736 137.483823,18.940465 132.873305,18.940465 C127.468214,18.940465 125.099803,15.5766091 125.099803,10.4680809 C125.099803,4.53056712 127.807324,0.103480207 134.235103,0.103480207 C135.958211,0.103480207 137.668305,0.295896113 139.305677,0.825990527 L139.305677,3.72439771 C138.24548,3.35857933 136.983961,3.05588553 135.84645,3.05588553 C131.731201,3.05588553 129.02368,6.78860201 129.02368,10.614104 L139.764203,10.614104 M135.765308,13.1565798 L129.14233,13.1565798 C129.335233,14.9750242 130.739898,16.2679374 132.567111,16.2679374 C134.511444,16.2679374 135.765308,15.0860626 135.765308,13.1565798" id="path3479" fill="#FFFFFF"></path>
                                            <path d="M81.8199582,39.6586386 L81.8199582,36.6917831 C81.8199582,36.6917831 90.264791,33.4488525 91.4803815,32.9841643 C90.264791,32.5202366 81.8199582,29.2841509 81.8199582,29.2841509 L81.8199582,26.3287035 L94.9656356,31.627366 L94.9656356,34.3508496 L81.8199582,39.6586386" id="path3483" fill="#FFFFFF"></path>
                                        </g>
                                    </g>
                                </g>
                            </g>
                        </g>
                    </g>
                </g>
            </g>
        </g>
    </g>
</svg>