<?xml version="1.0" encoding="UTF-8"?>
<svg width="96px" height="88px" viewBox="0 0 96 88" version="1.1" xmlns="http://www.w3.org/2000/svg" xmlns:xlink="http://www.w3.org/1999/xlink">
    <!-- Generator: Sketch 41.2 (35397) - http://www.bohemiancoding.com/sketch -->
    <title>CIBC_logo</title>
    <desc>Created with Sketch.</desc>
    <defs></defs>
    <g id="Page-1" stroke="none" stroke-width="1" fill="none" fill-rule="evenodd">
        <g id="Desktop-HD" transform="translate(-419.000000, -2468.000000)">
            <g id="CIBC_logo" transform="translate(421.000000, 2469.000000)">
                <g id="Layer_1">
                    <rect id="Rectangle-path" stroke="#FFFFFF" stroke-width="2.12121212" x="0" y="0.225900657" width="92" height="84.9140993"></rect>
                    <path d="M4.29578667,59.6442988 L4.29578667,68.8481192 C18.8179867,60.5342293 46.3695333,48.1037893 88.00076,44.647851 L88.00076,42.6607331 C57.40156,44.3594936 28.4973067,50.1490136 4.29578667,59.6442988" id="Shape" fill="#FFFFFF"></path>
                    <path d="M4.29578667,72.233211 L4.29578667,78.5515934 C25.0187867,62.9762558 55.3668267,52.2573162 88.00076,48.714995 L88.00076,46.7981021 C55.7544533,49.7531437 27.41324,58.5778736 4.29578667,72.233211" id="Shape" fill="#FFFFFF"></path>
                    <path d="M50.60184,21.6504184 C49.7321333,21.6504184 49.1954667,21.5836115 48.9280533,21.528923 L48.9280533,15.3730524 C48.9280533,14.2376453 48.96976,13.1780562 49.0749467,12.4497053 C49.4101333,12.3393961 50.33964,12.1868277 51.0311733,12.1868277 C54.3486933,12.1868277 55.80904,13.6081064 55.80904,16.707016 C55.80904,21.0112469 52.6006933,21.6215205 50.60184,21.6504184 L50.60184,21.6504184 Z M56.62416,29.8437451 C56.62416,34.0740223 54.2953333,35.8016807 50.78676,35.8016807 C50.07284,35.8016807 49.3650533,35.7174729 48.9280533,35.5869664 L48.9280533,23.683835 L50.47304,23.683835 C54.8988533,23.6835243 56.62416,25.9614854 56.62416,29.8437451 L56.62416,29.8437451 Z M55.2187067,22.2923864 C58.37308,21.396552 61.02636,19.11393 61.02636,15.649602 C61.02636,12.3266562 58.89288,10.092508 54.5253333,10.092508 C52.43908,10.092508 49.8204533,10.3078439 47.9307733,10.3078439 C46.07452,10.3078439 44.0995867,10.2867142 41.8373067,10.1658403 L41.6940933,10.1462643 L41.6940933,11.6899706 L41.8271867,11.7005354 C43.7205467,11.8453355 43.86008,12.2151042 43.86008,15.3161888 L43.86008,33.6520511 C43.86008,35.2927051 43.6490933,36.0928347 42.1678933,36.2118442 L41.7315067,36.2472674 L41.7315067,37.7648724 C43.1685467,37.6756929 45.82888,37.6098182 46.9859333,37.6098182 C48.1475867,37.6098182 49.03692,37.6753822 50.49696,37.7353531 C59.2246933,38.1262513 62.0656533,33.1001947 62.0656533,29.0610164 C62.0656533,24.2341377 58.56444,23.0204266 55.223,22.3312277 L55.2187067,22.2923864 Z" id="Shape" fill="#FFFFFF"></path>
                    <path d="M27.92568,34.0392206 C26.1954667,35.1286397 24.1800533,35.5866556 21.9018267,35.5866556 C15.7418133,35.5866556 12.6800533,30.7787315 12.6800533,23.1543512 C12.6800533,16.4382346 15.61424,12.0003898 21.23452,12.0003898 C23.14996,12.0003898 24.6986267,12.6895888 25.72136,13.6693202 C25.89064,14.2960625 26.1172667,17.5705345 26.1172667,17.5705345 L27.68832,17.5758169 L27.68832,17.4568073 C27.7027333,16.0386359 28.09312,12.7411699 28.3878267,11.0821828 L28.3997867,10.9547836 L28.2841733,10.9482582 C26.0777067,10.3535212 23.82892,9.85013869 20.8355467,9.85013869 C14.0572933,9.85013869 7.14104,14.0052193 7.14104,23.6260393 C7.14104,33.7151293 13.2142667,38.0911388 20.5386933,38.0911388 C22.5458267,38.0911388 25.2092267,37.7810304 27.35988,36.587206 L27.3936133,36.5726017 L28.4359733,34.5655971 L28.0124667,33.9851536 L27.92568,34.0392206" id="Shape" fill="#FFFFFF"></path>
                    <path d="M84.58296,34.0392206 C82.8567333,35.1286397 80.8437733,35.5866556 78.55788,35.5866556 C72.4015467,35.5866556 69.34132,30.7787315 69.34132,23.1543512 C69.34132,16.4382346 72.2758133,12.0003898 77.89456,12.0003898 C79.8121467,12.0003898 81.3602,12.6895888 82.38232,13.6693202 C82.5476133,14.2960625 82.77516,17.5705345 82.77516,17.5705345 L84.3532667,17.5758169 L84.3449867,17.4568073 C84.36216,16.0386359 84.74948,12.7411699 85.0451067,11.0821828 L85.0610533,10.9547836 L84.9460533,10.9482582 C82.7331467,10.3535212 80.4849733,9.85013869 77.4903733,9.85013869 C70.71672,9.85013869 63.80108,14.0052193 63.80108,23.6260393 C63.80108,33.7151293 69.874,38.0911388 77.2024133,38.0911388 C79.2028,38.0911388 81.8729467,37.7810304 84.0223733,36.587206 L84.0527333,36.5726017 L85.0960133,34.5655971 L84.67312,33.9851536 L84.58296,34.0392206" id="Shape" fill="#FFFFFF"></path>
                    <path d="M35.0148933,10.3078439 C33.4306533,10.3078439 31.6483067,10.2867142 30.1358267,10.1583828 L30.01592,10.1462643 L30.01592,11.6759877 L30.1211067,11.6815809 C32.10248,11.8083587 32.3616133,12.1371109 32.3616133,15.6113823 L32.3616133,33.0218908 C32.3616133,35.6823604 32.2337333,36.0925239 30.21648,36.2233412 L30.10792,36.2348382 L30.10792,37.7642509 L30.2287467,37.7508896 C31.7513467,37.6160328 33.3644133,37.5914851 34.9431333,37.5914851 C36.4957867,37.5914851 37.9815867,37.6160328 39.6244,37.7508896 L39.7443067,37.7642509 L39.7443067,36.2348382 L39.6421867,36.2233412 C37.6292267,36.0925239 37.51576,35.6820497 37.51576,33.0218908 L37.51576,15.6113823 C37.51576,12.0799366 37.6414933,11.808048 39.63452,11.6815809 L39.73756,11.6759877 L39.73756,10.1462643 L39.6167333,10.1583828 C37.9818933,10.2867142 36.5715333,10.3078439 35.0148933,10.3078439" id="Shape" fill="#FFFFFF"></path>
                </g>
            </g>
        </g>
    </g>
</svg>